<svg width="132" height="141" viewBox="0 0 132 141" fill="none" xmlns="http://www.w3.org/2000/svg">
<path d="M96.4902 54.3901C94.3693 50.9562 92.0968 47.8252 89.6728 44.9972C87.2488 42.2703 84.7239 39.7453 82.0979 37.4223C79.4719 35.2004 76.846 33.2309 74.22 31.5139C71.594 29.7969 69.0691 28.282 66.6451 26.969C60.9892 23.939 55.1817 21.616 49.2228 20.0001L96.4902 20L96.4902 54.3901Z" fill="url(#paint0_linear_133_83720)"/>
<path d="M2.12594 120.873C6.99788 123.542 12.045 125.155 17.2672 125.712C22.5296 126.407 27.5558 126.166 32.3459 124.989C37.1359 123.813 41.5528 121.741 45.5964 118.774C49.64 115.806 52.8991 112.064 55.3736 107.546C57.8482 103.029 59.247 98.2675 59.5702 93.2625C59.8449 88.346 59.2127 83.5085 57.6735 78.75C56.0858 74.0802 53.6069 69.6706 50.2368 65.5215C46.9068 61.5095 42.8059 58.1692 37.9339 55.5006L35.808 54.3361C36.7632 56.5867 37.323 59.1389 37.4872 61.9926C37.6915 64.9835 37.5045 68.163 36.9262 71.5313C36.348 74.8997 35.4027 78.4124 34.0904 82.0696C32.8667 85.7753 31.2359 89.4883 29.198 93.2087C27.1602 96.9291 24.9093 100.303 22.4455 103.329C20.0702 106.404 17.6191 109.092 15.0921 111.393C12.565 113.693 10.0106 115.519 7.42885 116.868C4.88713 118.355 2.41084 119.302 0 119.709L2.12594 120.873Z" fill="url(#paint1_linear_133_83720)"/>
<path d="M24.2279 47.9602C19.5332 45.3886 15.9267 42.7222 13.4087 39.9611C11.0277 37.1598 9.41232 34.4325 8.5626 31.779C7.76139 29.037 7.56445 26.4533 7.97177 24.0277C8.46768 21.6507 9.24936 19.4879 10.3168 17.5391C11.3357 15.6789 12.7575 13.9242 14.5821 12.275C16.4953 10.6743 18.7987 9.51768 21.4922 8.80506C24.2342 8.00385 27.4264 7.85233 31.069 8.35047C34.8 8.89714 38.9244 10.4077 43.442 12.8823L55.1346 19.287C50.8235 18.5378 46.6431 19.1268 42.5933 21.0542C38.5434 22.9816 35.4026 25.9826 33.1706 30.0573C30.9387 34.132 30.1009 38.3946 30.6573 42.845C31.2136 47.2955 32.9681 51.1354 35.9206 54.3649L24.2279 47.9602Z" fill="url(#paint2_linear_133_83720)"/>
<path d="M123.213 83.8524C125.031 83.1454 126.596 82.0849 127.909 80.6709C129.222 79.358 130.232 77.843 130.939 76.126C131.545 74.51 131.899 72.7425 132 70.8236C132 69.0056 131.646 67.1876 130.939 65.3696C130.232 63.5517 129.222 61.9862 127.909 60.6732C126.495 59.3602 124.93 58.3502 123.213 57.6432C121.496 56.9362 119.728 56.5322 117.91 56.4312C115.991 56.4312 114.123 56.8352 112.305 57.6432C109.679 58.7542 107.406 59.2087 105.487 59.0067C103.467 58.9057 101.75 58.5522 100.336 57.9462C98.8215 57.2392 97.5085 56.2292 96.3975 54.9163C96.2965 57.2392 96.448 59.6632 96.852 62.1882C97.256 64.3091 97.963 66.6826 98.973 69.3086C99.8819 71.9346 101.346 74.5605 103.366 77.1865C109.325 84.6604 115.941 86.8824 123.213 83.8524Z" fill="url(#paint3_linear_133_83720)"/>
<defs>
<linearGradient id="paint0_linear_133_83720" x1="72.8565" y1="20" x2="72.8565" y2="54.3901" gradientUnits="userSpaceOnUse">
<stop stop-color="white"/>
<stop offset="1" stop-color="white" stop-opacity="0.2"/>
</linearGradient>
<linearGradient id="paint1_linear_133_83720" x1="54.5428" y1="64.5982" x2="18.7348" y2="129.971" gradientUnits="userSpaceOnUse">
<stop stop-color="white"/>
<stop offset="1" stop-color="white" stop-opacity="0.2"/>
</linearGradient>
<linearGradient id="paint2_linear_133_83720" x1="18.3152" y1="44.7215" x2="37.5292" y2="9.64354" gradientUnits="userSpaceOnUse">
<stop stop-color="white"/>
<stop offset="1" stop-color="white" stop-opacity="0.2"/>
</linearGradient>
<linearGradient id="paint3_linear_133_83720" x1="132" y1="70.0399" x2="96.3672" y2="70.0399" gradientUnits="userSpaceOnUse">
<stop stop-color="white"/>
<stop offset="1" stop-color="white" stop-opacity="0.2"/>
</linearGradient>
</defs>
</svg>
