<svg width="358" height="367" viewBox="0 0 358 367" fill="none" xmlns="http://www.w3.org/2000/svg">
<path d="M103.285 267C109.452 276.984 116.059 286.088 123.107 294.31C130.155 302.239 137.496 309.58 145.131 316.335C152.767 322.795 160.402 328.521 168.037 333.514C175.672 338.506 183.013 342.911 190.061 346.728C206.506 355.538 223.391 362.292 240.717 366.991H103.285V267Z" fill="white"/>
<path d="M234.176 0C218.025 0 202.901 2.93658 188.806 8.80974C174.416 14.3892 161.936 22.0244 151.364 31.7151C140.793 41.4058 132.423 52.8585 126.256 66.0731C120.09 79.2877 117.006 93.3833 117.006 108.36C117.006 123.336 120.09 137.432 126.256 150.647C132.423 163.568 140.793 175.02 151.364 185.005C161.936 194.695 174.416 202.477 188.806 208.35C202.901 213.93 218.025 216.72 234.176 216.72H241.224C235.644 212.315 230.652 206.589 226.247 199.541C221.548 192.199 217.584 183.83 214.354 174.433C211.124 165.036 208.628 154.758 206.866 143.599C204.81 132.44 203.782 120.694 203.782 108.36C203.782 96.0262 204.81 84.2799 206.866 73.1209C208.628 61.9619 211.124 51.6838 214.354 42.2868C217.584 32.8897 221.548 24.6673 226.247 17.6195C230.652 10.278 235.644 4.40487 241.224 0H234.176Z" fill="url(#paint0_linear_133_83715)"/>
<path d="M279.661 216.803C295.225 216.803 308.146 218.565 318.424 222.088C328.408 225.906 336.337 230.605 342.21 236.184C348.083 242.057 352.194 248.371 354.544 255.125C356.599 261.879 357.627 268.486 357.627 274.947C357.627 281.114 356.452 287.574 354.103 294.328C351.46 301.082 347.202 307.249 341.329 312.829C335.456 318.702 327.527 323.547 317.543 327.365C307.265 331.182 294.637 333.091 279.661 333.091L240.898 333.091C252.938 328.98 262.775 321.639 270.41 311.067C278.046 300.495 281.863 288.455 281.863 274.947C281.863 261.439 278.046 249.399 270.41 238.827C262.775 228.255 252.938 220.914 240.898 216.803L279.661 216.803Z" fill="url(#paint1_linear_133_83715)"/>
<path d="M25.5902 180.867C20.3043 182.923 15.7526 186.006 11.9351 190.117C8.11752 193.935 5.18094 198.34 3.12535 203.332C1.36338 208.03 0.335574 213.169 0.0419179 218.749C0.0419177 224.035 1.06973 229.321 3.12534 234.606C5.18094 239.892 8.11752 244.444 11.9351 248.261C16.0463 252.079 20.598 255.016 25.5902 257.071C30.5824 259.127 35.7214 260.301 41.0072 260.595C46.5867 260.595 52.0194 259.42 57.3053 257.071C64.9404 253.841 71.5477 252.52 77.1272 253.107C83.0004 253.401 87.9926 254.428 92.1038 256.19C96.5087 258.246 100.326 261.182 103.556 265C103.85 258.246 103.41 251.198 102.235 243.857C101.06 237.69 99.0047 230.789 96.0681 223.154C93.4252 215.519 89.1672 207.883 83.294 200.248C65.9682 178.518 46.7336 172.057 25.5902 180.867Z" fill="url(#paint2_linear_133_83715)"/>
<defs>
<linearGradient id="paint0_linear_133_83715" x1="232.499" y1="2.92303e-07" x2="199.499" y2="217" gradientUnits="userSpaceOnUse">
<stop stop-color="white"/>
<stop offset="1" stop-color="white" stop-opacity="0.2"/>
</linearGradient>
<linearGradient id="paint1_linear_133_83715" x1="299.262" y1="216.803" x2="299.262" y2="333.091" gradientUnits="userSpaceOnUse">
<stop stop-color="white"/>
<stop offset="1" stop-color="white" stop-opacity="0"/>
</linearGradient>
<linearGradient id="paint2_linear_133_83715" x1="23.4981" y1="181.5" x2="101.498" y2="267.5" gradientUnits="userSpaceOnUse">
<stop stop-color="white"/>
<stop offset="1" stop-color="white" stop-opacity="0.2"/>
</linearGradient>
</defs>
</svg>
