<svg width="1104" height="240" viewBox="0 0 1104 240" fill="none" xmlns="http://www.w3.org/2000/svg">
<g clip-path="url(#clip0_2001_2)">
<rect width="1104" height="240" rx="8" fill="#006462"/>
<path d="M85.4902 34.3896C83.3693 30.9557 81.0968 27.8247 78.6728 24.9968C76.2488 22.2698 73.7239 19.7448 71.0979 17.4219C68.4719 15.1999 65.846 13.2304 63.22 11.5134C60.594 9.79645 58.0691 8.28146 55.6451 6.96848C49.9892 3.93852 44.1817 1.61555 38.2228 -0.000436323L85.4902 -0.000440455L85.4902 34.3896Z" fill="url(#paint0_linear_2001_2)"/>
<path d="M-8.87406 100.872C-4.00212 103.541 1.04497 105.154 6.26725 105.711C11.5296 106.406 16.5558 106.165 21.3459 104.989C26.1359 103.812 30.5528 101.74 34.5964 98.7731C38.64 95.8059 41.8991 92.0635 44.3736 87.5459C46.8482 83.0282 48.247 78.2669 48.5702 73.2619C48.8449 68.3454 48.2127 63.5079 46.6735 58.7494C45.0858 54.0795 42.6069 49.67 39.2368 45.5209C35.9068 41.5089 31.8059 38.1686 26.9339 35.5L24.808 34.3355C25.7632 36.5861 26.323 39.1383 26.4872 41.992C26.6915 44.9829 26.5045 48.1624 25.9262 51.5307C25.348 54.899 24.4027 58.4118 23.0904 62.069C21.8667 65.7747 20.2359 69.4877 18.198 73.2081C16.1602 76.9285 13.9093 80.3019 11.4455 83.3283C9.07025 86.4033 6.61911 89.0912 4.09207 91.392C1.56503 93.6929 -0.989369 95.5181 -3.57115 96.8677C-6.11287 98.3544 -8.58916 99.3012 -11 99.708L-8.87406 100.872Z" fill="url(#paint1_linear_2001_2)"/>
<path d="M13.2279 27.9601C8.53317 25.3885 4.92673 22.7221 2.40865 19.9609C0.0276757 17.1597 -1.58768 14.4324 -2.4374 11.7789C-3.23861 9.0369 -3.43555 6.45313 -3.02823 4.02761C-2.53232 1.65062 -1.75064 -0.512268 -0.683195 -2.46104C0.335731 -4.32123 1.75751 -6.07593 3.58212 -7.72512C5.49531 -9.32579 7.79866 -10.4824 10.4922 -11.1951C13.2342 -11.9963 16.4264 -12.1478 20.069 -11.6497C23.8 -11.103 27.9244 -9.59238 32.442 -7.11785L44.1346 -0.713166C39.8235 -1.46237 35.6431 -0.87329 31.5933 1.05408C27.5434 2.98146 24.4026 5.9825 22.1706 10.0572C19.9387 14.1319 19.1009 18.3945 19.6573 22.8449C20.2136 27.2954 21.9681 31.1353 24.9206 34.3648L13.2279 27.9601Z" fill="url(#paint2_linear_2001_2)"/>
<path d="M112.213 63.8522C114.031 63.1452 115.597 62.0847 116.91 60.6707C118.223 59.3577 119.233 57.8427 119.94 56.1258C120.546 54.5098 120.899 52.7423 121 50.8233C121 49.0053 120.647 47.1874 119.94 45.3694C119.233 43.5514 118.223 41.9859 116.91 40.6729C115.496 39.36 113.93 38.35 112.213 37.643C110.496 36.936 108.729 36.532 106.911 36.431C104.992 36.431 103.123 36.835 101.305 37.643C98.6793 38.754 96.4068 39.2085 94.4879 39.0065C92.4679 38.9055 90.7509 38.552 89.3369 37.946C87.8219 37.239 86.509 36.229 85.398 34.916C85.297 37.239 85.4485 39.663 85.8525 42.1879C86.2565 44.3089 86.9635 46.6824 87.9734 49.3083C88.8824 51.9343 90.3469 54.5603 92.3669 57.1862C98.3258 64.6602 104.941 66.8821 112.213 63.8522Z" fill="url(#paint3_linear_2001_2)"/>
<path d="M945.447 195.708C949.953 203.026 954.781 209.699 959.932 215.726C965.082 221.538 970.447 226.919 976.026 231.87C981.606 236.605 987.185 240.802 992.765 244.462C998.344 248.121 1003.71 251.35 1008.86 254.148C1020.88 260.605 1033.22 265.556 1045.88 269H945.447V195.708Z" fill="white"/>
<path d="M1041.1 0C1029.29 0 1018.24 2.15248 1007.94 6.45744C997.427 10.5472 988.307 16.1436 980.581 23.2468C972.856 30.35 966.74 38.7447 962.233 48.4308C957.727 58.117 955.473 68.4489 955.473 79.4266C955.473 90.4042 957.727 100.736 962.233 110.422C966.74 119.893 972.856 128.288 980.581 135.606C988.307 142.71 997.427 148.414 1007.94 152.719C1018.24 156.808 1029.29 158.853 1041.1 158.853H1046.25C1042.17 155.624 1038.52 151.427 1035.3 146.261C1031.87 140.88 1028.97 134.745 1026.61 127.857C1024.25 120.969 1022.43 113.436 1021.14 105.256C1019.64 97.0769 1018.89 88.467 1018.89 79.4266C1018.89 70.3862 1019.64 61.7762 1021.14 53.5968C1022.43 45.4174 1024.25 37.8837 1026.61 30.9957C1028.97 24.1078 1031.87 18.0808 1035.3 12.9149C1038.52 7.53368 1042.17 3.22872 1046.25 0H1041.1Z" fill="url(#paint4_linear_2001_2)"/>
<path d="M1074.34 158.914C1085.71 158.914 1095.15 160.205 1102.66 162.788C1109.96 165.586 1115.75 169.03 1120.04 173.12C1124.34 177.425 1127.34 182.053 1129.06 187.003C1130.56 191.954 1131.31 196.797 1131.31 201.533C1131.31 206.053 1130.45 210.788 1128.74 215.739C1126.8 220.69 1123.69 225.21 1119.4 229.3C1115.11 233.605 1109.31 237.156 1102.02 239.954C1094.51 242.753 1085.28 244.152 1074.34 244.152L1046.01 244.152C1054.81 241.138 1062 235.757 1067.58 228.008C1073.16 220.259 1075.94 211.434 1075.94 201.533C1075.94 191.631 1073.16 182.806 1067.58 175.057C1062 167.308 1054.81 161.927 1046.01 158.914L1074.34 158.914Z" fill="url(#paint5_linear_2001_2)"/>
<path d="M888.67 132.573C884.807 134.08 881.481 136.34 878.691 139.354C875.901 142.152 873.755 145.381 872.253 149.04C870.966 152.484 870.215 156.251 870 160.34C870 164.215 870.751 168.089 872.253 171.964C873.755 175.838 875.901 179.175 878.691 181.973C881.695 184.771 885.022 186.924 888.67 188.43C892.318 189.937 896.073 190.798 899.936 191.013C904.013 191.013 907.983 190.152 911.846 188.43C917.426 186.063 922.254 185.094 926.331 185.524C930.623 185.74 934.271 186.493 937.276 187.785C940.495 189.291 943.284 191.444 945.645 194.242C945.859 189.291 945.538 184.125 944.679 178.744C943.821 174.224 942.319 169.166 940.173 163.569C938.241 157.973 935.13 152.376 930.838 146.78C918.177 130.851 904.121 126.116 888.67 132.573Z" fill="url(#paint6_linear_2001_2)"/>
</g>
<defs>
<linearGradient id="paint0_linear_2001_2" x1="61.8565" y1="-0.000438389" x2="61.8565" y2="34.3897" gradientUnits="userSpaceOnUse">
<stop stop-color="white"/>
<stop offset="1" stop-color="white" stop-opacity="0.2"/>
</linearGradient>
<linearGradient id="paint1_linear_2001_2" x1="43.5428" y1="44.5976" x2="7.73481" y2="109.97" gradientUnits="userSpaceOnUse">
<stop stop-color="white"/>
<stop offset="1" stop-color="white" stop-opacity="0.2"/>
</linearGradient>
<linearGradient id="paint2_linear_2001_2" x1="7.31518" y1="24.7213" x2="26.5292" y2="-10.3566" gradientUnits="userSpaceOnUse">
<stop stop-color="white"/>
<stop offset="1" stop-color="white" stop-opacity="0.2"/>
</linearGradient>
<linearGradient id="paint3_linear_2001_2" x1="121" y1="50.0396" x2="85.3677" y2="50.0396" gradientUnits="userSpaceOnUse">
<stop stop-color="white"/>
<stop offset="1" stop-color="white" stop-opacity="0.2"/>
</linearGradient>
<linearGradient id="paint4_linear_2001_2" x1="1039.87" y1="2.14254e-07" x2="1015.61" y2="159.037" gradientUnits="userSpaceOnUse">
<stop stop-color="white"/>
<stop offset="1" stop-color="white" stop-opacity="0.2"/>
</linearGradient>
<linearGradient id="paint5_linear_2001_2" x1="1088.66" y1="158.914" x2="1088.66" y2="244.152" gradientUnits="userSpaceOnUse">
<stop stop-color="white"/>
<stop offset="1" stop-color="white" stop-opacity="0"/>
</linearGradient>
<linearGradient id="paint6_linear_2001_2" x1="887.141" y1="133.037" x2="944.331" y2="195.902" gradientUnits="userSpaceOnUse">
<stop stop-color="white"/>
<stop offset="1" stop-color="white" stop-opacity="0.2"/>
</linearGradient>
<clipPath id="clip0_2001_2">
<rect width="1104" height="240" rx="8" fill="white"/>
</clipPath>
</defs>
</svg>
