<?xml version="1.0" encoding="utf-8"?>
<!-- Generator: Adobe Illustrator 27.0.0, SVG Export Plug-In . SVG Version: 6.00 Build 0)  -->
<svg version="1.1" id="Layer_1" xmlns="http://www.w3.org/2000/svg" xmlns:xlink="http://www.w3.org/1999/xlink" x="0px" y="0px"
	 viewBox="0 0 1280.6 1060.8" style="enable-background:new 0 0 1280.6 1060.8;" xml:space="preserve">
<style type="text/css">
	.st0{fill:#F8C021;}
	.st1{fill:#008DCD;}
	.st2{fill:#F0802A;}
	.st3{fill:#61459A;}
	.st4{fill:#E6268D;}
	.st5{fill:#B8D03E;}
	.st6{fill:#FDFDFD;}
</style>
<path class="st0" d="M721.1,434.5h18.8l17.7,2.1l16.7,4.2l15.6,6.3l12.5,7.3l10.4,8.3l10.4,9.4l10.4,12.5l12.5,18.8l10.4,18.8
	l15.6,32.3l18.8,42.7l17.7,37.5l12.5,22.9l12.5,19.8l10.4,14.6l11.5,14.6l10.4,11.5l7.3,8.3l14.6,13.5l17.7,13.5l10.4,8.3l7.3,6.3
	l11.5,14.6l7.3,14.6l4.2,14.6l1,7.3v19.8l-4.2,20.8l-6.3,17.7l-8.3,16.7l-9.4,15.6l-12.5,16.7l-11.5,13.5l-14.6,15.6l-10.4,9.4
	l-14.6,12.5l-16.7,12.5l-18.8,12.5l-17.7,10.4l-24,12.5l-20.8,9.4l-25,9.4l-25,7.3l-25,5.2l-20.8,3.1l-10.4,1h-50l-24-3.1l-24-5.2
	l-28.1-9.4l-20.8-9.4l-20.8-11.5l-16.7-11.5l-14.6-11.5l-11.5-10.4l-8.3-7.3l-7.3-7.3l-7.3-8.3l-11.5-13.5l-14.6-19.8l-13.5-20.8
	l-14.6-22.9l-13.5-21.9L436.6,844L422,818l-15.6-30.2l-13.5-30.2l-10.4-29.2l-6.3-22.9l-4.2-27.1v-28.1l3.1-18.8l5.2-16.7l9.4-19.8
	l12.5-17.7l12.5-13.5l8.3-8.3l11.5-9.4l19.8-14.6l28.1-16.7l26.1-13.5l30.2-13.5l39.6-15.6l41.7-14.6l32.3-10.4l29.2-7.3l27.1-4.2
	L721.1,434.5z"/>
<path class="st1" d="M486.6,19.8l16.7,1l13.5,4.2l10.4,6.3l8.3,7.3l7.3,10.4l8.3,16.7l6.3,20.8l5.2,28.1l4.2,35.4l6.3,71.9l5.2,40.6
	l6.3,31.3l7.3,25l8.3,19.8l8.3,15.6l10.4,14.6l9.4,10.4l14.6,11.5l2.1,2.1l-12.5,6.3l-31.3,10.4l-25,4.2h-24l-18.8-3.1l-15.6-5.2
	l-19.8-10.4l-14.6-11.5l-13.5-13.5l-12.5-16.7L446,333.4l-8.3-17.7l-9.4-26.1l-6.3-22.9l-5.2-28.1l-3.1-26.1l-1-16.7v-34.4l2.1-26.1
	l4.2-26.1l6.3-24l7.3-19.8l8.3-15.6l10.4-13.5l9.4-8.3l12.5-6.3L486.6,19.8z"/>
<path class="st2" d="M783.6,0h13.5l13.5,3.1l14.6,7.3l9.4,7.3l5.2,4.2l9.4,12.5l6.3,13.5l4.2,15.6l1,8.3v35.4l-4.2,32.3l-8.3,43.8
	l-11.5,58.4l-5.2,34.4l-3.1,33.3v36.5l3.1,28.1l3.1,14.6v3.1h-12.5l-21.9-3.1l-19.8-5.2l-21.9-9.4l-18.8-12.5l-12.5-11.5l-7.3-7.3
	l-11.5-15.6l-9.4-16.7l-8.3-19.8l-6.3-20.8l-4.2-21.9l-2.1-18.8v-44.8l3.1-27.1l5.2-27.1l7.3-25l7.3-19.8l12.5-26.1l10.4-16.7
	l8.3-10.4l9.4-10.4l12.5-10.4l16.7-8.3L783.6,0z"/>
<path class="st3" d="M1165,369.9h15.6l18.8,2.1l24,6.3l19.8,8.3l15.6,8.3l9.4,7.3l7.3,7.3l4.2,8.3l1,3.1v15.6l-5.2,14.6l-10.4,16.7
	l-12.5,14.6l-16.7,17.7l-8.3,7.3l-15.6,14.6l-11.5,9.4l-11.5,10.4l-11.5,9.4l-14.6,12.5l-11.5,9.4l-14.6,12.5l-11.5,9.4l-14.6,13.5
	l-8.3,7.3l-16.7,15.6l-12.5,12.5l-7.3,8.3l-12.5,14.6l-12.5,17.7l-10.4,19.8l-3.1-3.1l-8.3-16.7l-8.3-19.8l-7.3-24l-4.2-20.8
	l-2.1-16.7v-42.7l4.2-28.1l6.3-24l7.3-19.8l11.5-24l12.5-19.8l13.5-16.7l12.5-13.5l11.5-9.4l12.5-9.4l17.7-10.4l17.7-7.3l17.7-5.2
	L1165,369.9z"/>
<path class="st4" d="M195.9,178.2h20.8l17.7,4.2l16.7,6.3l14.6,9.4l13.5,11.5l12.5,14.6l10.4,15.6l12.5,22.9l11.5,25l13.5,35.4
	l17.7,50l14.6,39.6l12.5,30.2l12.5,26.1l11.5,20.8l9.4,13.5l-1,2.1l-18.8,3.1h-37.5l-22.9-4.2l-21.9-7.3l-21.9-10.4l-17.7-11.5
	l-13.5-10.4L248,452.2l-12.5-12.5l-7.3-8.3l-12.5-15.6L202.1,396l-9.4-15.6l-12.5-24l-9.4-21.9l-9.4-28.1l-5.2-21.9l-3.1-24v-24
	l3.1-18.8l5.2-13.5l7.3-11.5l8.3-7.3l10.4-5.2L195.9,178.2z"/>
<path class="st5" d="M52.1,482.4h28.1l28.1,4.2l29.2,7.3l37.5,12.5l30.2,11.5l31.3,13.5l29.2,13.5l34.4,16.7l32.3,16.7l1,3.1
	l-8.3,19.8l-7.3,11.5l-11.5,13.5l-14.6,11.5l-16.7,8.3l-14.6,5.2l-12.5,3.1l-15.6,2.1h-35.4l-24-3.1l-28.1-6.3l-31.3-10.4l-20.8-9.4
	l-24-12.5L50,602.3l-10.4-8.3l-10.4-9.4l-10.4-10.4L8.3,559.6l-5.2-11.5L0,534.5L1,521l4.2-10.4l6.3-9.4l9.4-8.3l12.5-6.3
	L52.1,482.4z"/>
<path class="st6" d="M500.2,712.7h8.3l8.3,4.2l6.3,7.3l1,3.1l2.1,26.1l4.2,19.8l6.3,18.8l12.5,24l10.4,13.5l9.4,10.4l8.3,8.3
	l15.6,11.5l16.7,9.4l14.6,6.3l21.9,6.3l13.5,2.1H694l17.7-3.1l17.7-5.2l18.8-8.3l16.7-10.4l11.5-9.4l11.5-10.4l11.5-14.6l9.4-14.6
	l9.4-19.8l5.2-15.6l4.2-22.9l1-18.8l3.1-8.3l4.2-5.2l5.2-3.1l4.2-1h8.3l8.3,4.2l5.2,6.3l2.1,5.2v18.8l-3.1,22.9l-5.2,20.8l-6.3,16.7
	l-9.4,19.8l-9.4,14.6l-9.4,12.5l-11.5,12.5l-12.5,12.5L784.6,893l-19.8,11.5l-15.6,7.3l-21.9,7.3l-18.8,4.2l-16.7,2.1h-30.2
	l-22.9-3.1l-24-6.3l-25-10.4l-14.6-8.3l-13.5-9.4l-11.5-9.4l-12.5-11.5l-10.4-11.5l-11.5-15.6l-11.5-19.8l-8.3-18.8l-6.3-19.8
	l-4.2-20.8l-1-8.3v-25l3.1-6.3l7.3-6.3L500.2,712.7z"/>
<path class="st6" d="M585.6,636.7h12.5l11.5,4.2l8.3,7.3l5.2,9.4l2.1,7.3v10.4l-4.2,11.5l-9.4,10.4l-8.3,4.2l-12.5,2.1l-10.4-2.1
	l-9.4-5.2l-8.3-9.4l-3.1-7.3l-1-5.2v-8.3l3.1-10.4l6.3-9.4l10.4-7.3L585.6,636.7z"/>
<path class="st6" d="M755.5,636.7H769l10.4,4.2l10.4,9.4l4.2,8.3l1,4.2v14.6l-4.2,10.4l-6.3,7.3l-10.4,6.3l-13.5,2.1l-10.4-2.1
	l-10.4-6.3l-7.3-9.4l-3.1-8.3v-15.6l6.3-12.5l7.3-7.3L755.5,636.7z"/>
</svg>
