<svg width="32" height="38" viewBox="0 0 32 38" fill="none" xmlns="http://www.w3.org/2000/svg">
<g clip-path="url(#clip0_681_2375)">
<path d="M27.3333 -0.0136719H4.66667C3.42899 -0.0136719 2.242 0.477993 1.36683 1.35316C0.491665 2.22833 0 3.41532 0 4.653L0 27.3197C0 28.5573 0.491665 29.7443 1.36683 30.6195C2.242 31.4947 3.42899 31.9863 4.66667 31.9863H12.8127V21.049H8.87533V16.5283H12.8127V12.549C12.8127 8.23633 16.4167 5.93099 22.3127 7.23633V11.1103H20.3753C18.1673 11.1103 17.792 12.539 17.792 13.643V16.5283H22.146L21.4793 21.049H17.792V31.9863H27.3333C28.571 31.9863 29.758 31.4947 30.6332 30.6195C31.5083 29.7443 32 28.5573 32 27.3197V4.653C32 3.41532 31.5083 2.22833 30.6332 1.35316C29.758 0.477993 28.571 -0.0136719 27.3333 -0.0136719Z" fill="white"/>
</g>
<defs>
<clipPath id="clip0_681_2375">
<rect width="32" height="32" fill="white"/>
</clipPath>
</defs>
</svg>
