<svg width="32" height="38" viewBox="0 0 32 38" fill="none" xmlns="http://www.w3.org/2000/svg">
<path d="M25.1161 7.01304C23.5102 5.95945 22.3515 4.27312 21.9899 2.30855C21.9118 1.8842 21.8684 1.44705 21.8684 1H16.7431L16.7344 21.6696C16.6488 23.9846 14.7554 25.8421 12.4345 25.8421C11.7131 25.8421 11.034 25.661 10.4358 25.3438C9.06426 24.6179 8.12538 23.1714 8.12538 21.5072C8.12538 19.1165 10.0587 17.1712 12.4339 17.1712C12.8776 17.1712 13.3028 17.2451 13.7049 17.3714V12.1064C13.2884 12.0487 12.8655 12.0138 12.4339 12.0138C7.23219 12.0138 3 16.2718 3 21.5072C3 24.7186 4.5943 27.561 7.02799 29.2793C8.55982 30.3626 10.4243 31 12.4345 31C17.6368 31 21.8684 26.7414 21.8684 21.5072V11.0254C23.8787 12.4772 26.3419 13.3328 29 13.3328V8.1749C27.5683 8.1749 26.2348 7.74706 25.1161 7.01304Z" fill="white"/>
</svg>
