<svg width="32" height="33" viewBox="0 0 32 33" fill="none" xmlns="http://www.w3.org/2000/svg">
<g clip-path="url(#clip0_680_73456)">
<path d="M14.2799 19.0613C14.3436 19.0613 14.4088 19.0718 14.4725 19.0952C14.5413 19.1246 14.6037 19.1671 14.6562 19.2203L15.7279 20.348C15.2687 20.9539 14.6617 21.4318 13.965 21.7362C13.2581 22.0488 12.422 22.205 11.4559 22.205C10.5704 22.205 9.77748 22.0539 9.077 21.7518C8.37524 21.4523 7.78004 21.0357 7.29172 20.5045C6.80468 19.9733 6.42964 19.3458 6.16788 18.6165C5.9074 17.8891 5.77588 17.0978 5.77588 16.2446C5.77588 15.3755 5.92564 14.5768 6.22388 13.8488C6.5234 13.1208 6.94004 12.4926 7.47636 11.9646C8.0114 11.4366 8.65332 11.0258 9.39956 10.733C10.1471 10.4392 10.9711 10.293 11.8722 10.293C12.3096 10.293 12.7212 10.3314 13.1077 10.4088C13.4943 10.4862 13.8565 10.5931 14.1922 10.7285C14.5172 10.8589 14.8279 11.0225 15.1192 11.2168C15.3922 11.3982 15.6446 11.6088 15.8719 11.845L14.9592 13.069C14.8991 13.1453 14.8295 13.2138 14.7522 13.2728C14.6716 13.3339 14.5596 13.3646 14.4162 13.3646C14.3199 13.3646 14.2287 13.3438 14.1442 13.301C14.0507 13.2541 13.9598 13.202 13.8722 13.1448L13.5557 12.9448C13.4412 12.8731 13.3058 12.8062 13.148 12.7448C12.9903 12.6834 12.8069 12.6315 12.596 12.5886C12.3852 12.5464 12.1391 12.525 11.8565 12.525C11.3656 12.525 10.9176 12.6117 10.5116 12.7848C10.1137 12.9535 9.7577 13.2075 9.46868 13.5288C9.17716 13.8517 8.9506 14.2424 8.78772 14.7006C8.62484 15.1595 8.5442 15.6747 8.5442 16.245C8.5442 16.8427 8.62484 17.3726 8.78772 17.8373C8.9506 18.3016 9.17172 18.692 9.45172 19.0098C9.72195 19.3196 10.0566 19.5666 10.4322 19.7336C10.8107 19.8992 11.2197 19.9835 11.6328 19.981C11.8776 19.981 12.1016 19.9678 12.3048 19.9445C12.4968 19.9235 12.6859 19.8815 12.8687 19.8194C13.0418 19.7621 13.2081 19.6862 13.3647 19.5928C13.5335 19.4914 13.6925 19.3746 13.8399 19.244C13.9036 19.1918 13.974 19.1477 14.0482 19.1138C14.1221 19.077 14.2005 19.0613 14.2799 19.0613ZM24.7916 19.0613C24.8552 19.0613 24.9205 19.0718 24.9842 19.0952C25.053 19.1246 25.1154 19.1671 25.1679 19.2203L26.2396 20.348C25.7803 20.9539 25.1734 21.4318 24.4767 21.7362C23.7698 22.0488 22.9336 22.205 21.9676 22.205C21.0821 22.205 20.2892 22.0539 19.5887 21.7518C18.8869 21.4523 18.2917 21.0357 17.8034 20.5045C17.3164 19.9733 16.9413 19.3458 16.6796 18.6165C16.4191 17.8891 16.2876 17.0978 16.2876 16.2446C16.2876 15.3755 16.4373 14.5768 16.7356 13.8488C17.0351 13.1208 17.4517 12.4926 17.988 11.9646C18.5231 11.4366 19.165 11.0258 19.9112 10.733C20.6588 10.4392 21.4828 10.293 22.3839 10.293C22.8213 10.293 23.2328 10.3314 23.6194 10.4088C24.006 10.4862 24.3682 10.5931 24.7039 10.7285C25.0289 10.8589 25.3396 11.0225 25.6309 11.2168C25.9039 11.3982 26.1563 11.6088 26.3836 11.845L25.4709 13.069C25.4107 13.1453 25.3412 13.2138 25.2639 13.2728C25.1832 13.3339 25.0712 13.3646 24.9279 13.3646C24.8316 13.3646 24.7404 13.3438 24.6559 13.301C24.5623 13.2541 24.4715 13.202 24.3839 13.1448L24.0674 12.9448C23.9528 12.8731 23.8175 12.8062 23.6597 12.7448C23.502 12.6834 23.3186 12.6315 23.1077 12.5886C22.8968 12.5464 22.6508 12.525 22.3682 12.525C21.8773 12.525 21.4293 12.6117 21.0232 12.7848C20.6254 12.9535 20.2694 13.2075 19.9804 13.5288C19.6888 13.8517 19.4623 14.2424 19.2994 14.7006C19.1365 15.1595 19.0559 15.6747 19.0559 16.245C19.0559 16.8427 19.1365 17.3726 19.2994 17.8373C19.4623 18.3016 19.6834 18.692 19.9634 19.0098C20.2336 19.3196 20.5682 19.5666 20.9439 19.7336C21.3224 19.8992 21.7314 19.9835 22.1445 19.981C22.3893 19.981 22.6133 19.9678 22.8165 19.9445C23.0085 19.9235 23.1975 19.8815 23.3804 19.8194C23.5534 19.7621 23.7198 19.6862 23.8764 19.5928C24.0451 19.4914 24.2042 19.3746 24.3516 19.244C24.4152 19.1918 24.4856 19.1477 24.5599 19.1138C24.632 19.0785 24.7113 19.0605 24.7916 19.0613Z" fill="white"/>
<path d="M16 32.5898C7.1776 32.5898 0 25.4129 0 16.5898C0 7.76744 7.1776 0.589844 16 0.589844C24.823 0.589844 32 7.76744 32 16.5898C32 25.4129 24.823 32.5898 16 32.5898ZM16 3.2564C8.64768 3.2564 2.66656 9.23752 2.66656 16.5898C2.66656 23.9415 8.64768 29.9233 16 29.9233C23.3517 29.9233 29.3334 23.9415 29.3334 16.5898C29.3334 9.23752 23.3517 3.2564 16 3.2564Z" fill="white"/>
</g>
<defs>
<clipPath id="clip0_680_73456">
<rect width="32" height="32" fill="white" transform="translate(0 0.589844)"/>
</clipPath>
</defs>
</svg>
