<svg width="46" height="52" viewBox="0 0 46 52" fill="none" xmlns="http://www.w3.org/2000/svg">
<g clip-path="url(#clip0_681_2415)">
<path d="M23 46C10.3184 46 0 35.6816 0 23C0 10.3184 10.3184 0 23 0C35.6816 0 46 10.3184 46 23C46 35.6816 35.6816 46 23 46ZM23 1.91667C11.3745 1.91667 1.91667 11.3745 1.91667 23C1.91667 34.6255 11.3745 44.0833 23 44.0833C34.6255 44.0833 44.0833 34.6255 44.0833 23C44.0833 11.3745 34.6255 1.91667 23 1.91667Z" fill="white"/>
<path d="M23 35.4587C22.8741 35.4589 22.7494 35.4342 22.6332 35.386C22.5169 35.3378 22.4113 35.2671 22.3224 35.1779L15.6208 28.4744L15.5873 28.4428C11.4971 24.3536 11.4971 17.7008 15.5863 13.6126C16.5577 12.6361 17.7131 11.862 18.9857 11.3351C20.2582 10.8082 21.6227 10.539 23 10.543C25.8012 10.543 28.4337 11.6326 30.4136 13.6126C34.5029 17.7008 34.5029 24.3536 30.4136 28.4418C30.4026 28.4531 30.3911 28.464 30.3792 28.4744L23.6775 35.1779C23.5887 35.2671 23.483 35.3377 23.3668 35.3859C23.2505 35.4341 23.1258 35.4589 23 35.4587ZM16.9165 27.0618L16.9519 27.0953L23 33.1453L29.0471 27.0963L29.0825 27.0628C32.3993 23.7211 32.3916 18.3017 29.0586 14.9686C28.2647 14.1708 27.3204 13.5383 26.2805 13.1078C25.2405 12.6773 24.1255 12.4573 23 12.4606C20.7105 12.4606 18.5591 13.3519 16.9414 14.9686C13.6083 18.3017 13.5997 23.7191 16.9165 27.0618Z" fill="white"/>
<path d="M22.9996 26.1273C22.3295 26.1291 21.6656 25.9979 21.0464 25.7415C20.4273 25.485 19.8651 25.1084 19.3925 24.6332C18.4382 23.6755 17.9023 22.3786 17.9023 21.0265C17.9023 19.6745 18.4382 18.3776 19.3925 17.4198C19.8651 16.9447 20.4273 16.568 21.0464 16.3116C21.6656 16.0551 22.3295 15.924 22.9996 15.9258C24.3624 15.9258 25.6437 16.4567 26.6068 17.4198C27.5611 18.3776 28.097 19.6745 28.097 21.0265C28.097 22.3786 27.5611 23.6755 26.6068 24.6332C26.1342 25.1084 25.572 25.485 24.9529 25.7415C24.3337 25.9979 23.6698 26.1291 22.9996 26.1273ZM22.9996 17.8425C22.1486 17.8425 21.3484 18.174 20.7476 18.7749C20.1518 19.3729 19.8173 20.1826 19.8175 21.0267C19.8177 21.8708 20.1525 22.6804 20.7485 23.2781C21.9484 24.4799 24.049 24.4799 25.2508 23.2781C25.8466 22.6802 26.181 21.8704 26.1808 21.0263C26.1807 20.1822 25.8459 19.3726 25.2498 18.7749C24.9552 18.4782 24.6046 18.243 24.2183 18.0829C23.832 17.9229 23.4178 17.8411 22.9996 17.8425Z" fill="white"/>
</g>
<defs>
<clipPath id="clip0_681_2415">
<rect width="46" height="46" fill="white"/>
</clipPath>
</defs>
</svg>
