<svg width="32" height="38" viewBox="0 0 32 38" fill="none" xmlns="http://www.w3.org/2000/svg">
<g clip-path="url(#clip0_681_2384)">
<path d="M23.0517 0H8.9477C4.0837 0 0.137695 3.98133 0.137695 8.888V23.112C0.137695 28.0187 4.0837 32 8.9477 32H23.0517C27.9157 32 31.8617 28.0187 31.8617 23.112V8.888C31.8617 3.98133 27.9157 0 23.0517 0ZM29.2197 22.6667C29.2197 26.348 26.2564 29.3333 22.607 29.3333H9.39236C5.74303 29.3333 2.7797 26.348 2.7797 22.6667V9.33333C2.7797 5.65133 5.74303 2.66667 9.39236 2.66667H22.607C26.2564 2.66667 29.2197 5.65133 29.2197 9.33333V22.6667Z" fill="white"/>
<path d="M16 7.77669C11.4966 7.77669 7.84863 11.456 7.84863 15.9994C7.84863 20.5427 11.4966 24.222 16 24.222C20.5033 24.222 24.1513 20.5427 24.1513 15.9994C24.1513 11.456 20.5033 7.77669 16 7.77669ZM16 21.3334C13.0846 21.3334 10.712 18.9414 10.712 15.9994C10.712 13.0574 13.0846 10.6654 16 10.6654C18.9153 10.6654 21.288 13.0574 21.288 15.9994C21.288 18.9414 18.9153 21.3334 16 21.3334ZM26.438 7.38003C26.438 8.45069 25.5773 9.31803 24.516 9.31803C23.4546 9.31803 22.5966 8.45069 22.5966 7.38003C22.5966 6.31203 23.4546 5.44336 24.516 5.44336C25.5773 5.44336 26.438 6.31203 26.438 7.38003Z" fill="white"/>
</g>
<defs>
<clipPath id="clip0_681_2384">
<rect width="32" height="32" fill="white"/>
</clipPath>
</defs>
</svg>
