<svg width="46" height="46" viewBox="0 0 46 46" fill="none" xmlns="http://www.w3.org/2000/svg">
<g clip-path="url(#clip0_681_2397)">
<path d="M23 46C10.3184 46 0 35.6816 0 23C0 10.3184 10.3184 0 23 0C35.6816 0 46 10.3184 46 23C46 35.6816 35.6816 46 23 46ZM23 1.91667C11.3745 1.91667 1.91667 11.3745 1.91667 23C1.91667 34.6255 11.3745 44.0833 23 44.0833C34.6255 44.0833 44.0833 34.6255 44.0833 23C44.0833 11.3745 34.6255 1.91667 23 1.91667Z" fill="white"/>
<path d="M15.2308 11.4766C15.4455 11.4766 15.6611 11.4977 15.8662 11.5293L15.8834 11.5341L18.1279 12.5911L18.1384 12.5997V12.6122C17.8601 13.6653 17.7178 14.7497 17.7148 15.8389C17.7158 16.9525 17.8691 18.0392 18.1384 19.0637V19.0771L18.1279 19.0809L15.8844 20.1409L15.8652 20.1485C16.5746 22.5095 17.8571 24.6583 19.5984 26.4033C21.3398 28.1483 23.4858 29.4354 25.8453 30.1497L25.8539 30.1315L26.9119 27.8842L26.9196 27.8679H26.9292C27.9536 28.142 29.0337 28.2934 30.1511 28.2944C31.2368 28.2918 32.3175 28.1485 33.3663 27.8679H33.3826L33.3893 27.8832L34.4454 30.1315L34.4492 30.1497C34.4837 30.3557 34.5 30.5666 34.5 30.7832C34.5016 31.4818 34.3346 32.1706 34.0131 32.7909C33.6916 33.4112 33.2251 33.9448 32.6533 34.3462C31.8349 34.466 31.0011 34.5235 30.1501 34.5235C29.2991 34.5235 28.4654 34.466 27.6403 34.3462C19.3478 33.2394 12.7804 26.6604 11.6716 18.3488C11.5562 17.5168 11.4989 16.6779 11.5 15.838C11.5 14.9831 11.5566 14.1494 11.6725 13.3271C12.0722 12.7543 12.6046 12.2868 13.2242 11.9646C13.8439 11.6423 14.5324 11.4749 15.2308 11.4766Z" fill="white" stroke="white" stroke-width="1.91667" stroke-miterlimit="10" stroke-linecap="round" stroke-linejoin="round"/>
</g>
<defs>
<clipPath id="clip0_681_2397">
<rect width="46" height="46" fill="white"/>
</clipPath>
</defs>
</svg>
