<svg width="32" height="38" viewBox="0 0 32 38" fill="none" xmlns="http://www.w3.org/2000/svg">
<path d="M31.3313 8.32195C30.9507 6.98462 30.1487 5.73462 28.0053 5.28729C25.864 4.84195 19.9053 4.75195 16 4.75195C12.0947 4.75195 6.136 4.84195 3.99467 5.28795C1.85133 5.73529 1.04933 6.98529 0.668667 8.32262C0.29 9.66129 0 13.1873 0 15.9993C0 18.8113 0.29 22.3373 0.668667 23.6766C1.04933 25.014 1.85133 26.266 3.99467 26.7113C6.136 27.1566 12.0947 27.2466 16 27.2466C19.9053 27.2466 25.864 27.1566 28.0053 26.7106C30.1487 26.2653 30.9507 25.0133 31.3313 23.676C31.71 22.3373 32 18.8113 32 15.9993C32 13.1873 31.71 9.66129 31.3313 8.32195ZM12.7087 20.76V11.1993L20.9873 15.9793L12.7087 20.76Z" fill="white"/>
</svg>
