<svg width="45" height="47" viewBox="0 0 45 47" fill="none" xmlns="http://www.w3.org/2000/svg">
<path d="M16.8876 38.1091H5.71019H4.77833H2.91461C2.42482 38.1091 2.02656 37.6902 2.02656 37.1753V13.7212C2.02656 13.2063 2.42482 12.7874 2.91461 12.7874H21.544C22.0348 12.7874 22.434 13.2063 22.434 13.7212V14.697C22.434 15.262 22.8693 15.7187 23.4078 15.7187C23.9462 15.7187 24.3815 15.262 24.3815 14.697V13.7212C24.3815 12.0803 23.1078 10.7439 21.544 10.7439H17.8624V2.96847C17.8624 1.32858 16.5887 -0.00683594 15.0249 -0.00683594H9.43569C7.87187 -0.00683594 6.59823 1.32858 6.59823 2.96847V10.7429H2.91461C1.35177 10.7429 0.0791016 12.0793 0.0791016 13.7212V37.1753C0.0791016 38.8019 1.32937 40.124 2.87274 40.1485V41.0844C2.87274 42.1869 3.72767 43.084 4.77833 43.084H5.71019C6.75987 43.084 7.61383 42.1869 7.61383 41.0844V40.1526H16.8867C17.4251 40.1526 17.8604 39.6959 17.8604 39.1309C17.8604 38.5658 17.4251 38.1091 16.8876 38.1091ZM9.43569 2.03664H15.0239C15.5147 2.03664 15.9139 2.45453 15.9139 2.96847V3.90234H8.54569V2.96847C8.54569 2.45453 8.94493 2.03664 9.43569 2.03664ZM8.54569 5.94581H15.9139V10.7429H8.54569V5.94581ZM5.66637 41.0425L4.8202 41.0844L4.77833 40.1526H5.66637V41.0425Z" fill="#D2B690"/>
<path d="M11.4454 15.2469L6.38789 16.6681C6.05195 16.7631 5.79002 17.038 5.69946 17.3905C5.6089 17.743 5.7053 18.119 5.95166 18.3775L9.65378 22.2621C9.83879 22.4563 10.0871 22.5615 10.3422 22.5615C10.426 22.5615 10.5107 22.5503 10.5944 22.5268C10.9303 22.4318 11.1923 22.1569 11.2828 21.8044L12.6383 16.4985C12.7288 16.146 12.6324 15.77 12.3861 15.5115C12.1407 15.253 11.7833 15.1498 11.4454 15.2469ZM9.83782 19.5658L8.52133 18.1844L10.3208 17.6786L9.83782 19.5658Z" fill="#D2B690"/>
<path d="M42.0347 16.6089H38.3511V5.90215C38.3511 4.26124 37.0774 2.9248 35.5136 2.9248H28.0626C26.4998 2.9248 25.2271 4.26124 25.2271 5.90215V16.6089H21.5435C19.9797 16.6089 18.708 17.9444 18.708 19.5843V41.0847C18.708 42.7113 19.9583 44.0334 21.5016 44.058V44.9939C21.5007 46.0963 22.3556 46.9934 23.4063 46.9934H24.3362C25.3868 46.9934 26.2418 46.0963 26.2418 44.9939V44.062H37.3355V44.9939C37.3355 46.0963 38.1894 46.9934 39.2391 46.9934H40.171C41.2216 46.9934 42.0766 46.0963 42.0766 44.9939V44.058C43.6199 44.0334 44.8702 42.7113 44.8702 41.0847V19.5843C44.8702 17.9433 43.5976 16.6089 42.0347 16.6089ZM28.0617 4.96828H35.5127C36.0034 4.96828 36.4027 5.38719 36.4027 5.90215V6.83398H27.1736V5.90215C27.1736 5.38719 27.5719 4.96828 28.0617 4.96828ZM27.1736 8.87745H36.4027V16.6079H27.1736V8.87745ZM24.2943 44.952L23.4481 44.9939L23.4063 44.062H24.2943V44.952ZM39.283 44.9939L39.2391 44.062H40.1291V44.952L39.283 44.9939ZM42.9228 41.0847C42.9228 41.5997 42.5245 42.0186 42.0347 42.0186H40.171H39.2391H24.3362H23.4063H21.5425C21.0528 42.0186 20.6545 41.5997 20.6545 41.0847V19.5843C20.6545 19.0703 21.0528 18.6524 21.5425 18.6524H42.0347C42.5245 18.6524 42.9228 19.0703 42.9228 19.5843V41.0847Z" fill="#D2B690"/>
<path d="M38.6774 29.8289C38.2966 29.4294 37.6812 29.4294 37.3005 29.8289L32.0326 35.3565C31.6519 35.756 31.6519 36.4018 32.0326 36.8013L34.0083 38.8744C34.1982 39.0736 34.4475 39.1737 34.6967 39.1737C34.946 39.1737 35.1953 39.0736 35.3852 38.8744L40.6531 33.3468C41.0338 32.9473 41.0338 32.3015 40.6531 31.902L38.6774 29.8289ZM34.6967 36.7083L34.0979 36.0799L37.9889 31.9971L38.5878 32.6254L34.6967 36.7083Z" fill="#D2B690"/>
<path d="M28.0623 21.4932C25.9843 21.4932 24.2949 23.2659 24.2949 25.4463C24.2949 27.6277 25.9843 29.4014 28.0623 29.4014C30.1412 29.4014 31.8316 27.6277 31.8316 25.4463C31.8316 23.2659 30.1412 21.4932 28.0623 21.4932ZM28.0623 27.3579C27.0593 27.3579 26.2424 26.4997 26.2424 25.4463C26.2424 24.3939 27.0593 23.5366 28.0623 23.5366C29.0662 23.5366 29.8841 24.3939 29.8841 25.4463C29.8841 26.4997 29.0662 27.3579 28.0623 27.3579Z" fill="#D2B690"/>
</svg>
