<svg width="45" height="47" viewBox="0 0 45 47" fill="none" xmlns="http://www.w3.org/2000/svg">
<path d="M38.3687 24.6355C36.0277 22.9087 32.8931 22.6124 30.299 23.8917C27.8509 25.081 26.1556 27.4853 25.7388 30.2502L23.7981 31.2005V23.4942C23.7981 23.4789 23.7903 23.4666 23.7893 23.4513C29.3574 22.7646 33.6945 17.7906 33.6945 11.7651C33.6945 5.27476 28.6611 -0.00683594 22.4757 -0.00683594C16.2893 -0.00683594 11.2559 5.27476 11.2559 11.7651C11.2559 18.0358 15.9553 23.1621 21.8505 23.5054V29.5993L20.3519 28.8657C19.9341 26.0997 18.2388 23.6965 15.7956 22.5082C13.1898 21.2248 10.064 21.5221 7.72106 23.25C7.4377 23.4594 7.28189 23.8109 7.31111 24.1727C7.5565 27.1879 9.33753 29.8579 11.958 31.1412C13.0418 31.6715 14.1947 31.9392 15.3827 31.9392C16.8619 31.9392 18.2739 31.5029 19.5222 30.7141L21.8505 31.8534V34.1994H14.0925C13.554 34.1994 13.1187 34.6562 13.1187 35.2212V38.1527C13.1187 38.7177 13.554 39.1745 14.0925 39.1745H14.1636L14.9893 46.0981C15.0507 46.609 15.4645 46.9932 15.9553 46.9932H29.927C30.4178 46.9932 30.8326 46.609 30.893 46.0981L31.7178 39.1745H31.7898C32.3283 39.1745 32.7636 38.7177 32.7636 38.1527V35.2212C32.7636 34.6562 32.3283 34.1994 31.7898 34.1994H23.7981V33.4361C23.8214 33.4259 23.8468 33.43 23.8692 33.4188L26.5675 32.0976C27.8159 32.8874 29.2288 33.3237 30.707 33.3237C31.896 33.3237 33.047 33.055 34.1327 32.5257C36.7522 31.2424 38.5342 28.5725 38.7786 25.5572C38.8078 25.1965 38.652 24.845 38.3687 24.6355ZM12.7818 29.2908C10.9667 28.4018 9.68225 26.6382 9.32877 24.5998C11.0338 23.5821 13.1742 23.4768 14.9737 24.3617C16.3877 25.0493 17.4715 26.2714 18.0518 27.7407L15.0429 26.2683C14.557 26.0333 13.9766 26.251 13.7487 26.7619C13.5218 27.2738 13.7322 27.8817 14.2191 28.1198L17.2202 29.5891C15.779 30.0561 14.1752 29.9713 12.7818 29.2908ZM29.0672 44.9516H16.8151L16.1267 39.1765H29.7547L29.0672 44.9516ZM30.8161 37.133H15.0672V36.245H30.817L30.8161 37.133ZM13.2034 11.7651C13.2034 6.40179 17.3634 2.03673 22.4757 2.03673C27.588 2.03673 31.747 6.40179 31.747 11.7651C31.747 17.1305 27.588 21.4946 22.4757 21.4946C17.3634 21.4946 13.2034 17.1305 13.2034 11.7651ZM33.3099 30.6753C31.9145 31.3568 30.3117 31.4406 28.8685 30.9726L31.8716 29.5033C32.3585 29.2652 32.5698 28.6573 32.342 28.1453C32.1151 27.6345 31.5357 27.4137 31.0478 27.6518L28.0389 29.1242C28.6192 27.6559 29.704 26.4339 31.1209 25.7442C32.9097 24.8634 35.0559 24.9666 36.761 25.9843C36.4085 28.0238 35.124 29.7863 33.3099 30.6753Z" fill="#D2B690"/>
<path d="M24.6115 17.9062C25.15 17.9062 25.5852 17.4495 25.5852 16.8844V14.612C26.4918 14.6743 27.7529 14.5905 28.6108 13.862C29.2087 13.3552 29.5251 12.6236 29.5251 11.7479C29.5251 10.8835 29.2126 10.1591 28.6205 9.65123C27.2202 8.44961 24.702 8.94211 24.4187 9.00138C23.9639 9.09845 23.6377 9.51738 23.6377 10.0037V16.8844C23.6377 17.4495 24.0739 17.9062 24.6115 17.9062ZM25.5852 10.907C26.2747 10.8723 27.044 10.9366 27.3877 11.234C27.4812 11.3147 27.5766 11.4383 27.5766 11.7479C27.5766 12.0688 27.4802 12.1934 27.3877 12.2731C27.042 12.5684 26.2591 12.6226 25.5852 12.5643V10.907Z" fill="#D2B690"/>
<path d="M22.9255 13.2037L21.8583 10.7095C21.9079 10.6738 21.9595 10.6431 22.0072 10.6033C22.6042 10.0965 22.9206 9.36486 22.9206 8.48919C22.9206 7.62476 22.6081 6.89929 22.015 6.39147C20.6157 5.18985 18.0975 5.68235 17.8151 5.74161C17.3604 5.83868 17.0342 6.25761 17.0342 6.74398V13.6226C17.0342 14.1877 17.4695 14.6444 18.008 14.6444C18.5465 14.6444 18.9817 14.1877 18.9817 13.6226V11.3522C19.2875 11.3737 19.6361 11.3747 19.9954 11.343L21.1493 14.0405C21.311 14.4196 21.6664 14.6444 22.0384 14.6444C22.1718 14.6444 22.3062 14.6158 22.4357 14.5545C22.9265 14.3225 23.1456 13.7187 22.9255 13.2037ZM18.9817 9.30253V7.64519C19.6673 7.61147 20.4395 7.67483 20.7842 7.97216C20.8777 8.05289 20.9731 8.17652 20.9731 8.48714C20.9731 8.80696 20.8777 8.9306 20.7842 9.01132C20.4385 9.30661 19.6556 9.36179 18.9817 9.30253Z" fill="#D2B690"/>
<path d="M43.8987 10.7432H36.4474C35.9089 10.7432 35.4736 11.1999 35.4736 11.7649C35.4736 12.33 35.9089 12.7867 36.4474 12.7867H43.8987C44.4372 12.7867 44.8725 12.33 44.8725 11.7649C44.8725 11.1999 44.4372 10.7432 43.8987 10.7432Z" fill="#D2B690"/>
<path d="M9.47797 11.7649C9.47797 11.1999 9.04269 10.7432 8.5042 10.7432H1.05288C0.514379 10.7432 0.0791016 11.1999 0.0791016 11.7649C0.0791016 12.33 0.514379 12.7867 1.05288 12.7867H8.5042C9.04269 12.7867 9.47797 12.33 9.47797 11.7649Z" fill="#D2B690"/>
<path d="M40.3129 17.4924L35.9378 15.8197C35.4343 15.6266 34.8734 15.9004 34.6904 16.4307C34.5053 16.961 34.7663 17.5476 35.2727 17.7396L39.6478 19.4123C39.7569 19.4542 39.8699 19.4736 39.9809 19.4736C40.3782 19.4736 40.7521 19.2161 40.8952 18.8013C41.0793 18.272 40.8193 17.6855 40.3129 17.4924Z" fill="#D2B690"/>
<path d="M4.63888 6.04043L9.01502 7.71309C9.12408 7.75498 9.23802 7.77542 9.34805 7.77542C9.74535 7.77542 10.1193 7.51793 10.2624 7.10309C10.4465 6.5738 10.1865 5.98628 9.68011 5.79418L5.30397 4.1205C4.80247 3.92738 4.23963 4.20122 4.05656 4.73153C3.87155 5.26081 4.13252 5.84731 4.63888 6.04043Z" fill="#D2B690"/>
<path d="M35.6043 7.77342C35.7144 7.77342 35.8273 7.75299 35.9374 7.71109L40.3125 6.03945C40.8189 5.84634 41.0789 5.25983 40.8949 4.73055C40.7118 4.20024 40.1499 3.92641 39.6474 4.11952L35.2723 5.79116C34.7659 5.98326 34.5059 6.57078 34.69 7.10007C34.8331 7.51593 35.207 7.77342 35.6043 7.77342Z" fill="#D2B690"/>
<path d="M10.2619 16.4307C10.0789 15.9004 9.51797 15.6266 9.01452 15.8197L4.63838 17.4914C4.13299 17.6835 3.87202 18.271 4.05607 18.8003C4.19921 19.2151 4.57314 19.4726 4.97044 19.4726C5.08048 19.4726 5.19343 19.4522 5.30347 19.4103L9.67961 17.7386C10.186 17.5476 10.446 16.96 10.2619 16.4307Z" fill="#D2B690"/>
</svg>
