<svg width="45" height="47" viewBox="0 0 45 47" fill="none" xmlns="http://www.w3.org/2000/svg">
<path d="M42.9447 5.85616H40.1942V2.96807C40.1942 1.32794 38.9231 -0.00683594 37.361 -0.00683594H7.56839C6.00629 -0.00683594 4.73423 1.32794 4.73423 2.96807V5.85616H1.98378C0.933629 5.85616 0.0791016 6.68644 0.0791016 7.70565V16.8019C0.0791016 17.8211 0.933629 18.6504 1.98378 18.6504H4.73423V41.0863C4.73423 41.651 5.16928 42.1075 5.7075 42.1075H7.52654V44.9946C7.52654 46.0965 8.38106 46.9932 9.43122 46.9932H13.1549C14.2041 46.9932 15.0577 46.0965 15.0577 44.9946V42.1075H29.8698V44.9946C29.8698 46.0965 30.7234 46.9932 31.7725 46.9932H35.4963C36.5464 46.9932 37.4009 46.0965 37.4009 44.9946V42.1075H39.22C39.7582 42.1075 40.1932 41.651 40.1932 41.0863V18.6504H42.9437C43.9939 18.6504 44.8484 17.8211 44.8484 16.8019V7.70565C44.8494 6.68644 43.9948 5.85616 42.9447 5.85616ZM6.68077 16.8019V7.89867H38.2477V16.8019V27.6068C35.9975 28.2624 28.552 30.2916 22.4642 30.2916C16.3823 30.2916 8.93291 28.2634 6.68077 27.6068V16.8019ZM7.56839 2.03567H37.3601C37.8409 2.03567 38.2467 2.46255 38.2467 2.96807V5.85616H6.68077V2.96807C6.68077 2.46255 7.08759 2.03567 7.56839 2.03567ZM2.02563 16.6007V7.89867L4.73423 7.90479V16.6079L2.02563 16.6007ZM13.1121 44.9507L9.47404 44.9936V42.1065H13.1121V44.9507ZM17.8091 36.2414L27.0756 36.1985V37.1309H17.8159L17.8091 36.2414ZM17.8354 39.1735H27.0756V40.064H17.8432L17.8354 39.1735ZM35.4554 44.9507L31.8173 44.9936V42.1065H35.4554V44.9507ZM36.4287 40.064H30.8441H29.0231V36.1985C29.0231 35.0956 28.1695 34.1989 27.1203 34.1989H17.8101C16.7609 34.1989 15.9073 35.0956 15.9073 36.1985V40.064H14.0864H8.4998H6.68077V29.7279C9.48669 30.5265 16.4884 32.3341 22.4642 32.3341C28.4401 32.3341 35.4418 30.5265 38.2477 29.7279V40.064H36.4287ZM42.9028 16.6079L40.1942 16.6007V7.89867L42.9028 7.90479V16.6079Z" fill="#D2B690"/>
<path d="M13.6952 36.325L9.97144 33.7188C9.67362 33.5094 9.28918 33.49 8.97287 33.6677C8.65656 33.8454 8.45898 34.1916 8.45898 34.5684V37.1747C8.45898 37.7394 8.89403 38.1959 9.43225 38.1959H13.156C13.5852 38.1959 13.9628 37.9018 14.0874 37.4708C14.211 37.0399 14.0523 36.5742 13.6952 36.325Z" fill="#D2B690"/>
<path d="M35.9554 33.6687C35.6401 33.491 35.2537 33.5104 34.9568 33.7197L31.2331 36.326C30.8759 36.5751 30.7173 37.0408 30.8419 37.4718C30.9664 37.9028 31.345 38.1969 31.7733 38.1969H35.497C36.0352 38.1969 36.4702 37.7404 36.4702 37.1756V34.5694C36.4702 34.1915 36.2717 33.8453 35.9554 33.6687Z" fill="#D2B690"/>
</svg>
