<svg width="41" height="41" viewBox="0 0 41 41" fill="none" xmlns="http://www.w3.org/2000/svg">
<g clip-path="url(#clip0_680_73164)">
<path d="M20.5 41C31.8218 41 41 31.8218 41 20.5C41 9.17816 31.8218 0 20.5 0C9.17816 0 0 9.17816 0 20.5C0 31.8218 9.17816 41 20.5 41Z" fill="#006462"/>
<path d="M16.8154 31.8715C16.4776 31.8714 16.1473 31.7712 15.8665 31.5834C15.5856 31.3957 15.3667 31.1289 15.2374 30.8168C15.1082 30.5047 15.0743 30.1613 15.1402 29.8299C15.2061 29.4986 15.3688 29.1942 15.6076 28.9553L24.0638 20.4999L15.6084 12.0445C15.4453 11.887 15.3151 11.6984 15.2256 11.49C15.1361 11.2816 15.0889 11.0574 15.087 10.8306C15.085 10.6038 15.1282 10.3788 15.2141 10.1689C15.3 9.95892 15.4269 9.76818 15.5873 9.60778C15.7477 9.44738 15.9384 9.32053 16.1484 9.23464C16.3583 9.14874 16.5833 9.10552 16.8101 9.10749C17.0369 9.10946 17.2611 9.15658 17.4695 9.24612C17.6779 9.33565 17.8664 9.46579 18.024 9.62896L28.895 20.4999L18.024 31.3718C17.6901 31.7049 17.2527 31.8715 16.8154 31.8715Z" fill="white"/>
</g>
<defs>
<clipPath id="clip0_680_73164">
<rect width="41" height="41" fill="white"/>
</clipPath>
</defs>
</svg>
