<svg width="41" height="41" viewBox="0 0 41 41" fill="none" xmlns="http://www.w3.org/2000/svg">
<g clip-path="url(#clip0_680_73126)">
<path d="M20.5 0C9.17816 0 0 9.17816 0 20.5C0 31.8218 9.17816 41 20.5 41C31.8218 41 41 31.8218 41 20.5C41 9.17816 31.8218 0 20.5 0Z" fill="#D2B690"/>
<path d="M24.1846 9.12854C24.5224 9.12862 24.8527 9.22885 25.1335 9.41657C25.4144 9.60428 25.6333 9.87107 25.7626 10.1832C25.8918 10.4953 25.9257 10.8387 25.8598 11.1701C25.7939 11.5014 25.6312 11.8058 25.3924 12.0447L16.9362 20.5001L25.3916 28.9555C25.5547 29.113 25.6849 29.3016 25.7744 29.51C25.8639 29.7184 25.9111 29.9426 25.913 30.1694C25.915 30.3962 25.8718 30.6212 25.7859 30.8311C25.7 31.0411 25.5731 31.2318 25.4127 31.3922C25.2523 31.5526 25.0616 31.6795 24.8516 31.7654C24.6417 31.8513 24.4167 31.8945 24.1899 31.8925C23.9631 31.8905 23.7389 31.8434 23.5305 31.7539C23.3221 31.6644 23.1336 31.5342 22.976 31.371L12.105 20.5001L22.976 9.62823C23.3099 9.29511 23.7473 9.12854 24.1846 9.12854Z" fill="white"/>
</g>
<defs>
<clipPath id="clip0_680_73126">
<rect width="41" height="41" fill="white" transform="matrix(-1 0 0 -1 41 41)"/>
</clipPath>
</defs>
</svg>
