<svg width="27" height="27" viewBox="0 0 27 27" fill="none" xmlns="http://www.w3.org/2000/svg">
<g clip-path="url(#clip0_680_73155)">
<path d="M13.9506 21.638C8.66614 21.638 3.74077 18.7926 1.09581 14.2117C1.00104 14.0469 0.951172 13.8602 0.951172 13.6701C0.951172 13.48 1.00104 13.2932 1.09581 13.1284C3.74077 8.54752 8.66614 5.70215 13.9506 5.70215C19.2351 5.70215 24.1605 8.54752 26.8055 13.1284C26.9002 13.2932 26.9501 13.48 26.9501 13.6701C26.9501 13.8602 26.9002 14.0469 26.8055 14.2117C24.1605 18.7926 19.2351 21.638 13.9506 21.638ZM3.30364 13.6701C5.62739 17.264 9.64981 19.4713 13.9506 19.4713C18.2509 19.4713 22.2739 17.264 24.5976 13.6701C22.2739 10.0761 18.2509 7.86882 13.9506 7.86882C9.64981 7.86882 5.62739 10.0761 3.30364 13.6701Z" fill="white"/>
<path d="M13.9508 19.0863C10.9641 19.0863 8.53418 16.6563 8.53418 13.6696C8.53418 10.6828 10.9641 8.25293 13.9508 8.25293C16.9376 8.25293 19.3675 10.6828 19.3675 13.6696C19.3675 16.6563 16.9376 19.0863 13.9508 19.0863ZM13.9508 10.4196C12.1585 10.4196 10.7008 11.8772 10.7008 13.6696C10.7008 15.462 12.1585 16.9196 13.9508 16.9196C15.7432 16.9196 17.2008 15.462 17.2008 13.6696C17.2008 11.8772 15.7432 10.4196 13.9508 10.4196Z" fill="white"/>
</g>
<defs>
<clipPath id="clip0_680_73155">
<rect width="26" height="26" fill="white" transform="translate(0.950195 0.669922)"/>
</clipPath>
</defs>
</svg>
